{"title":"The.Fighter.2010.WEBSCR.720p.AC3.XViD-T0XiC-iNK","uid":6133782,"size":2985066586,"categoryP":"video","categoryS":"hd___movies","magnet":"?xt=urn:btih:46dc57183efd221023c171e2905d2f28d9016e1a&amp;dn=The.Fighter.2010.WEBSCR.720p.AC3.XViD-T0XiC-iNK&amp;tr=udp%3A%2F%2Ftracker.openbittorrent.com%3A80&amp;tr=udp%3A%2F%2Fopen.demonii.com%3A1337&amp;tr=udp%3A%2F%2Ftracker.coppersurfer.tk%3A6969&amp;tr=udp%3A%2F%2Fexodus.desync.com%3A6969","seeders":1,"leechers":0,"uploader":"TvTeam","files":5,"time":1296223934,"description":". \n  &lt;a href=&quot;\nhttp://www.torrentday.com/&quot; rel=&quot;nofollow&quot; target=&quot;_NEW&quot;&gt;\nhttp://www.torrentday.com/&lt;/a&gt;        :     The Hottest Private Tracker On The Net!!!\n &lt;a href=&quot;\nhttp://www.torrentday.com&quot; rel=&quot;nofollow&quot; target=&quot;_NEW&quot;&gt;\nhttp://www.torrentday.com&lt;/a&gt;          :     Once &amp; For all ;)\n\n\n               www . TorrentDay . Com \n\n(((((((((((((= Enjoy No RAR releases =))))))))))))))))))))\n\n\n...................................NFO:....................................\n\n.[img]http://www.leetleech.org/images/01691410903046145041.jpg[/img]\n\n::::::::::::::Enjoy:Another:Release:From:T0XiC::::::::::::::\n\nFile:: The.Fighter.2010.WEBSCR.720p.AC3.XViD-T0XiC-iNK\nVideo Source:: ....mf34inc\nAudio Source:: ....own custom 5.1\nLanguage::English\nIMDB::http://www.imdb.com/title/tt0964517/\n\nA look at the early years of boxer &quot;Irish&quot; Micky Ward \nand his brother who helped train him before going pro in the mid 1980s.\n\nSpecs::\n\nGeneral\n\nFormat                           : AVI\nFormat/Info                      : Audio Video Interleave\nFormat profile                   : OpenDML\nFile size                        : 2.77 GiB\nDuration                         : 1h 55mn\nOverall bit rate                 : 3 429 Kbps\nWriting application              : VirtualDubMod 1.5.10.2 (build 2540/release)\nWriting library                  : VirtualDubMod build 2540/release\n\nVideo\nID                               : 0\nFormat                           : MPEG-4 Visual\nFormat profile                   : Advanced Simple@L5\nFormat settings, BVOP            : Yes\nFormat settings, QPel            : No\nFormat settings, GMC             : No warppoints\nFormat settings, Matrix          : Default (MPEG)\nMuxing mode                      : Packed bitstream\nCodec ID                         : XVID\nCodec ID/Hint                    : XviD\nDuration                         : 1h 55mn\nBit rate                         : 2 970 Kbps\nWidth                            : 1 280 pixels\nHeight                           : 532 pixels\nDisplay aspect ratio             : 2.40:1\nFrame rate                       : 23.976 fps\nColor space                      : YUV\nChroma subsampling               : 4:2:0\nBit depth                        : 8 bits\nScan type                        : Progressive\nBits/(Pixel*Frame)               : 0.182\nStream size                      : 2.40 GiB (87%)\nWriting library                  : XviD 1.2.1 (UTC 2008-12-04)\n\nAudio\nID                               : 1\nFormat                           : AC-3\nFormat/Info                      : Audio Coding 3\nMode extension                   : CM (complete main)\nCodec ID                         : 2000\nDuration                         : 1h 55mn\nBit rate mode                    : Constant\nBit rate                         : 448 Kbps\nChannel(s)                       : 6 channels\nChannel positions                : Front: L C R, Side: L R, LFE\nSampling rate                    : 48.0 KHz\nBit depth                        : 16 bits\nStream size                      : 371 MiB (13%)\nAlignment                        : Split accross interleaves\nInterleave, duration             : 42 ms (1.00 video frame)\nInterleave, preload duration     : 500 ms\n\n\n\n\n\nNOTES:: The first 720p WEBSCR release of The Fighter, resynced with custom 5.1. Enjoy\n\n\n::Why Complain? Whats Free Is Free::\n\n::iNK is currently a free agent looking for work, if you would like iNK's touch, give me a email at: ...&lt;a class=&quot;__cf_email__&quot; href=&quot;/cdn-cgi/l/email-protection&quot; data-cfemail=&quot;90f4f9f7f9e4f1fcbef9fefbd0fcf9e6f5bef3fffd&quot;&gt;[email&amp;#160;protected]&lt;/a&gt;&lt;script cf-hash='f9e31' type=&quot;text/javascript&quot;&gt;\n/* &lt;![CDATA[ */!function(){try{var t=&quot;currentScript&quot;in document?document.currentScript:function(){for(var t=document.getElementsByTagName(&quot;script&quot;),e=t.length;e--;)if(t[e].getAttribute(&quot;cf-hash&quot;))return t[e]}();if(t&amp;&amp;t.previousSibling){var e,r,n,i,c=t.previousSibling,a=c.getAttribute(&quot;data-cfemail&quot;);if(a){for(e=&quot;&quot;,r=parseInt(a.substr(0,2),16),n=2;a.length-n;n+=2)i=parseInt(a.substr(n,2),16)^r,e+=String.fromCharCode(i);e=document.createTextNode(e),c.parentNode.replaceChild(e,c)}}}catch(u){}}();/* ]]&gt; */&lt;/script&gt; or MSN add me.\n\n::We are always looking for friends with unreleased DVD's, Screeners, R5's, Audio, Cams, Silvers,\n...and any other good sources you may have to offer - contact us: &lt;a class=&quot;__cf_email__&quot; href=&quot;/cdn-cgi/l/email-protection&quot; data-cfemail=&quot;c1b5f1b9a8a2b3a4ada4a0b2a4b281a9b4b2a9aca0a8adefa2aeac&quot;&gt;[email&amp;#160;protected]&lt;/a&gt;&lt;script cf-hash='f9e31' type=&quot;text/javascript&quot;&gt;\n/* &lt;![CDATA[ */!function(){try{var t=&quot;currentScript&quot;in document?document.currentScript:function(){for(var t=document.getElementsByTagName(&quot;script&quot;),e=t.length;e--;)if(t[e].getAttribute(&quot;cf-hash&quot;))return t[e]}();if(t&amp;&amp;t.previousSibling){var e,r,n,i,c=t.previousSibling,a=c.getAttribute(&quot;data-cfemail&quot;);if(a){for(e=&quot;&quot;,r=parseInt(a.substr(0,2),16),n=2;a.length-n;n+=2)i=parseInt(a.substr(n,2),16)^r,e+=String.fromCharCode(i);e=document.createTextNode(e),c.parentNode.replaceChild(e,c)}}}catch(u){}}();/* ]]&gt; */&lt;/script&gt;\n\n::::::::::::::::::::::::::::::::::::   Respect To   :::::::::::::::::::::::::::::::::::::\n::IMAGiNE,FLAWL3SS,Hive-CM8,DiGiTALiNK,Tranz,Vik,OneTwo,bob,&amp; our friends on utn and PA::\n                       &quot;and to all of you who support us, Thank-You&quot;\n\n[img]http://www.leetleech.org/images/60961274265177876115.png[/img]\n[img]http://www.leetleech.org/images/30462834055379810802.png[/img]\n[img]http://www.leetleech.org/images/17709291569200662545.png[/img]\n[img]http://www.leetleech.org/images/32554873849625990673.png[/img]\n[img]http://www.leetleech.org/images/98886382275659560284.png[/img]","torrent":{"xt":"urn:btih:46dc57183efd221023c171e2905d2f28d9016e1a","amp;dn":"The.Fighter.2010.WEBSCR.720p.AC3.XViD-T0XiC-iNK","amp;tr":["udp%3A%2F%2Ftracker.openbittorrent.com%3A80","udp%3A%2F%2Fopen.demonii.com%3A1337","udp%3A%2F%2Ftracker.coppersurfer.tk%3A6969","udp%3A%2F%2Fexodus.desync.com%3A6969"],"infoHash":"46dc57183efd221023c171e2905d2f28d9016e1a","infoHashBuffer":{"type":"Buffer","data":[70,220,87,24,62,253,34,16,35,193,113,226,144,93,47,40,217,1,110,26]},"announce":[],"urlList":[]}}